# xmcd
#
# Track frame offsets: 
#        150
#        12472
#        46007
#        57402
#        81227
#        92507
#        108372
#        122097
#        134950
#        148737
#        162745
#        178160
#        195667
#        214410
#        238847
#        249720
#        267110
#        282015
#
# Disc length: 3944 seconds
#
# Revision: 4
# Processed by: cddbd v1.5.2PL0 Copyright (c) Steve Scherf et al.
# Submitted via: ExactAudioCopy v1.3
#
DISCID=170f6612
DTITLE=Various Artist - Rhythm and Blues Legends [CD3)
DYEAR=1900
DGENRE=Blues
TTITLE0=John Lee Hooker - John Lee Hooker - I'm in the mood
TTITLE1=Buddy Guy - Buddy Guy - Stone crazy
TTITLE2=Eddie 'cleanhead' Vinson - Eddie 'cleanhead' Vinson - Person t
TTITLE2=o person
TTITLE3=Louis Jordan - Louis Jordan - Saturday night fish fry
TTITLE4=Sonny Boy Williamson - Bring it home to me
TTITLE5=Johnny Otis - Bad luck shadow
TTITLE6=Joe Turner - Corrine Corinna
TTITLE7=Muddy Waters - Forty days and forty nights
TTITLE8=Howlin' Wolf - Smokestack lightnin'
TTITLE9=Joe Liggins And The Honeydrippers - Tanya
TTITLE10=Bishop Gatemouth Moore - Somebody's got to go
TTITLE11=Amos Milburn - I am bewildered
TTITLE12=Richard Berry - Round about midnight
TTITLE13=Pee Wee Crayton - Blues after hours
TTITLE14=Roy Milton - Information Blues
TTITLE15=Johnny Otis - Barrelhouse blues
TTITLE16=Charles Brown - Baby let me hold your hand
TTITLE17=Louis Jordan - Ain't nobody here but us chickens
EXTD=
EXTT0=
EXTT1=
EXTT2=
EXTT3=
EXTT4=
EXTT5=
EXTT6=
EXTT7=
EXTT8=
EXTT9=
EXTT10=
EXTT11=
EXTT12=
EXTT13=
EXTT14=
EXTT15=
EXTT16=
EXTT17=
PLAYORDER=
